{
  "accessors": [
    {
      "bufferView": 2,
      "componentType": 5126,
      "count": 432,
      "max": [
        1.590583086013794,
        1.9993202686309814,
        0.2618356943130493
      ],
      "min": [
        -0.9848078489303589,
        -1.0,
        -2.798596143722534
      ],
      "type": "VEC3"
    },
    {
      "bufferView": 2,
      "byteOffset": 5184,
      "componentType": 5126,
      "count": 432,
      "max": [
        0.9957642555236816,
        1.0,
        1.0
      ],
      "min": [
        -0.9957642555236816,
        -1.0,
        -1.0
      ],
      "type": "VEC3"
    },
    {
      "bufferView": 1,
      "componentType": 5126,
      "count": 432,
      "max": [
        0.5614497661590576,
        0.9461894631385803
      ],
      "min": [
        0.0061575546860694885,
        0.011806548573076725
      ],
      "type": "VEC2"
    },
    {
      "bufferView": 0,
      "componentType": 5125,
      "count": 1296,
      "type": "SCALAR"
    },
    {
      "bufferView": 2,
      "byteOffset": 10368,
      "componentType": 5126,
      "count": 558,
      "max": [
        3.485914707183838,
        0.6198329925537109,
        0.6258246898651123
      ],
      "min": [
        -0.5363194346427917,
        -3.807236671447754,
        -2.456195116043091
      ],
      "type": "VEC3"
    },
    {
      "bufferView": 2,
      "byteOffset": 17064,
      "componentType": 5126,
      "count": 558,
      "max": [
        0.9968366026878357,
        0.9948869943618774,
        0.9972473382949829
      ],
      "min": [
        -0.9988361597061157,
        -0.9999802112579346,
        -0.9985834956169128
      ],
      "type": "VEC3"
    },
    {
      "bufferView": 1,
      "byteOffset": 3456,
      "componentType": 5126,
      "count": 558,
      "max": [
        0.9125072360038757,
        0.6840537786483765
      ],
      "min": [
        0.2879598140716553,
        0.2884082794189453
      ],
      "type": "VEC2"
    },
    {
      "bufferView": 0,
      "byteOffset": 5184,
      "componentType": 5125,
      "count": 2592,
      "type": "SCALAR"
    },
    {
      "bufferView": 2,
      "byteOffset": 23760,
      "componentType": 5126,
      "count": 133,
      "max": [
        5.545153617858887,
        -1.206606149673462,
        1.0479393005371094
      ],
      "min": [
        2.969348907470703,
        -4.90880012512207,
        -5.128704071044922
      ],
      "type": "VEC3"
    },
    {
      "bufferView": 2,
      "byteOffset": 25356,
      "componentType": 5126,
      "count": 133,
      "max": [
        0.9502574801445007,
        0.9815307259559631,
        0.9858593940734863
      ],
      "min": [
        -0.9305177330970764,
        -0.9815307259559631,
        -0.7316393256187439
      ],
      "type": "VEC3"
    },
    {
      "bufferView": 1,
      "byteOffset": 7920,
      "componentType": 5126,
      "count": 133,
      "max": [
        0.9909384846687317,
        0.9854217171669006
      ],
      "min": [
        0.05810098350048065,
        0.39757823944091797
      ],
      "type": "VEC2"
    },
    {
      "bufferView": 0,
      "byteOffset": 15552,
      "componentType": 5125,
      "count": 330,
      "type": "SCALAR"
    },
    {
      "bufferView": 2,
      "byteOffset": 26952,
      "componentType": 5126,
      "count": 700,
      "max": [
        1.5478606224060059,
        0.5369997620582581,
        0.7810918092727661
      ],
      "min": [
        -1.075075387954712,
        -1.9943983554840088,
        -0.10922592133283615
      ],
      "type": "VEC3"
    },
    {
      "bufferView": 2,
      "byteOffset": 35352,
      "componentType": 5126,
      "count": 700,
      "max": [
        1.0,
        1.0,
        1.0
      ],
      "min": [
        -1.0,
        -1.0,
        -1.0
      ],
      "type": "VEC3"
    },
    {
      "bufferView": 1,
      "byteOffset": 8984,
      "componentType": 5126,
      "count": 700,
      "max": [
        0.9915181994438171,
        0.9765365123748779
      ],
      "min": [
        0.00843079388141632,
        0.013493153266608715
      ],
      "type": "VEC2"
    },
    {
      "bufferView": 0,
      "byteOffset": 16872,
      "componentType": 5125,
      "count": 1116,
      "type": "SCALAR"
    },
    {
      "bufferView": 2,
      "byteOffset": 43752,
      "componentType": 5126,
      "count": 116,
      "max": [
        0.9898215532302856,
        1.0,
        1.3729252815246582
      ],
      "min": [
        -0.9898214340209961,
        -1.0,
        0.0
      ],
      "type": "VEC3"
    },
    {
      "bufferView": 2,
      "byteOffset": 45144,
      "componentType": 5126,
      "count": 116,
      "max": [
        0.9183252453804016,
        0.9277656674385071,
        1.0
      ],
      "min": [
        -0.9183252453804016,
        -0.9277656674385071,
        -1.0
      ],
      "type": "VEC3"
    },
    {
      "bufferView": 1,
      "byteOffset": 14584,
      "componentType": 5126,
      "count": 116,
      "max": [
        0.8262201547622681,
        0.9866607189178467
      ],
      "min": [
        0.012559468857944012,
        0.012559468857944012
      ],
      "type": "VEC2"
    },
    {
      "bufferView": 0,
      "byteOffset": 21336,
      "componentType": 5125,
      "count": 396,
      "type": "SCALAR"
    }
  ],
  "asset": {
    "extras": {
      "author": "Vie Dinh (https://sketchfab.com/yenvydinh2295)",
      "license": "CC-BY-4.0 (http://creativecommons.org/licenses/by/4.0/)",
      "source": "https://sketchfab.com/3d-models/birthday-cake-87f446798bb544c6b0dca2504b1f9d50",
      "title": "Birthday Cake !"
    },
    "generator": "Sketchfab-12.66.0",
    "version": "2.0"
  },
  "bufferViews": [
    {
      "buffer": 0,
      "byteLength": 22920,
      "name": "floatBufferViews",
      "target": 34963
    },
    {
      "buffer": 0,
      "byteLength": 15512,
      "byteOffset": 22920,
      "byteStride": 8,
      "name": "floatBufferViews",
      "target": 34962
    },
    {
      "buffer": 0,
      "byteLength": 46536,
      "byteOffset": 38432,
      "byteStride": 12,
      "name": "floatBufferViews",
      "target": 34962
    }
  ],
  "buffers": [
    {
      "byteLength": 84968,
      "uri": "scene.bin"
    }
  ],
  "extensionsUsed": [
    "KHR_materials_unlit"
  ],
  "images": [
    {
      "uri": "textures/Chocolate_baseColor.png"
    },
    {
      "uri": "textures/Icecream2.003_baseColor.png"
    },
    {
      "uri": "textures/Material.001_baseColor.png"
    }
  ],
  "materials": [
    {
      "doubleSided": true,
      "extensions": {
        "KHR_materials_unlit": {}
      },
      "name": "Chocolate",
      "pbrMetallicRoughness": {
        "baseColorTexture": {
          "index": 0
        },
        "metallicFactor": 0.0
      }
    },
    {
      "doubleSided": true,
      "extensions": {
        "KHR_materials_unlit": {}
      },
      "name": "Icecream2.003",
      "pbrMetallicRoughness": {
        "baseColorTexture": {
          "index": 1
        },
        "metallicFactor": 0.0
      }
    },
    {
      "doubleSided": true,
      "extensions": {
        "KHR_materials_unlit": {}
      },
      "name": "Icecream2.001",
      "pbrMetallicRoughness": {
        "baseColorTexture": {
          "index": 1
        },
        "metallicFactor": 0.0
      }
    },
    {
      "doubleSided": true,
      "extensions": {
        "KHR_materials_unlit": {}
      },
      "name": "Material.001",
      "pbrMetallicRoughness": {
        "baseColorTexture": {
          "index": 2
        },
        "metallicFactor": 0.0
      }
    }
  ],
  "meshes": [
    {
      "name": "Cube.007_Chocolate_0",
      "primitives": [
        {
          "attributes": {
            "NORMAL": 1,
            "POSITION": 0,
            "TEXCOORD_0": 2
          },
          "indices": 3,
          "material": 0,
          "mode": 4
        }
      ]
    },
    {
      "name": "Plane.004_Icecream2.003_0",
      "primitives": [
        {
          "attributes": {
            "NORMAL": 5,
            "POSITION": 4,
            "TEXCOORD_0": 6
          },
          "indices": 7,
          "material": 1,
          "mode": 4
        }
      ]
    },
    {
      "name": "Plane.004_Icecream2.001_0",
      "primitives": [
        {
          "attributes": {
            "NORMAL": 9,
            "POSITION": 8,
            "TEXCOORD_0": 10
          },
          "indices": 11,
          "material": 2,
          "mode": 4
        }
      ]
    },
    {
      "name": "Cube.002_Chocolate_0",
      "primitives": [
        {
          "attributes": {
            "NORMAL": 13,
            "POSITION": 12,
            "TEXCOORD_0": 14
          },
          "indices": 15,
          "material": 0,
          "mode": 4
        }
      ]
    },
    {
      "name": "Circle_Material.001_0",
      "primitives": [
        {
          "attributes": {
            "NORMAL": 17,
            "POSITION": 16,
            "TEXCOORD_0": 18
          },
          "indices": 19,
          "material": 3,
          "mode": 4
        }
      ]
    }
  ],
  "nodes": [
    {
      "children": [
        1
      ],
      "matrix": [
        0.9997553825378418,
        -8.610718032574008e-16,
        0.022118208929896355,
        0.0,
        0.022117963060736656,
        -0.0047225248999891445,
        -0.9997442364692688,
        0.0,
        0.00010445379302836955,
        0.999988853931427,
        -0.004721369594335334,
        0.0,
        -11.016048431396484,
        -18.05491065979004,
        5.606383800506587,
        1.0
      ],
      "name": "Sketchfab_model"
    },
    {
      "children": [
        2
      ],
      "matrix": [
        1.0,
        0.0,
        0.0,
        0.0,
        0.0,
        0.0,
        1.0,
        0.0,
        0.0,
        -1.0,
        0.0,
        0.0,
        0.0,
        0.0,
        0.0,
        1.0
      ],
      "name": "411606c6078b4683b58b24911d93df3f.fbx"
    },
    {
      "children": [
        3,
        5,
        8,
        10
      ],
      "name": "RootNode"
    },
    {
      "children": [
        4
      ],
      "matrix": [
        15.097971047667256,
        -15.164287462237315,
        -18.292202933946122,
        0.0,
        2.4989033474553284,
        22.565904333118464,
        -16.644659523043785,
        0.0,
        23.628708424742406,
        7.302980541734277,
        13.448410796275754,
        0.0,
        12.055041313171387,
        148.3744354248047,
        29.088350296020508,
        1.0
      ],
      "name": "Cube.007"
    },
    {
      "mesh": 0,
      "name": "Cube.007_Chocolate_0"
    },
    {
      "children": [
        6,
        7
      ],
      "matrix": [
        -23.145306487690405,
        0.9946660205267639,
        -20.200016342298664,
        0.0,
        -18.039007162191556,
        -14.896218092424343,
        19.935706026555113,
        0.0,
        -9.144632946009065,
        26.867238873245565,
        11.800944008458048,
        0.0,
        16.686256408691406,
        144.30836486816406,
        72.7975082397461,
        1.0
      ],
      "name": "Plane.004"
    },
    {
      "mesh": 1,
      "name": "Plane.004_Icecream2.003_0"
    },
    {
      "mesh": 2,
      "name": "Plane.004_Icecream2.001_0"
    },
    {
      "children": [
        9
      ],
      "matrix": [
        8.657312328541535,
        -59.092713922758946,
        20.21195993465433,
        0.0,
        5.518729273083656,
        -19.60157024915921,
        -59.671964027411605,
        0.0,
        62.20945097304356,
        9.962470824111145,
        2.480847561266464,
        0.0,
        -50.09818649291992,
        161.1128692626953,
        -10.909432411193848,
        1.0
      ],
      "name": "Cube.002"
    },
    {
      "mesh": 3,
      "name": "Cube.002_Chocolate_0"
    },
    {
      "children": [
        11
      ],
      "matrix": [
        100.0,
        0.0,
        0.0,
        0.0,
        0.0,
        -1.629206793918314e-05,
        -99.99999999999868,
        0.0,
        0.0,
        99.99999999999868,
        -1.629206793918314e-05,
        0.0,
        0.0,
        0.0,
        0.0,
        1.0
      ],
      "name": "Circle"
    },
    {
      "mesh": 4,
      "name": "Circle_Material.001_0"
    }
  ],
  "samplers": [
    {
      "magFilter": 9729,
      "minFilter": 9987,
      "wrapS": 10497,
      "wrapT": 10497
    }
  ],
  "scene": 0,
  "scenes": [
    {
      "name": "Sketchfab_Scene",
      "nodes": [
        0
      ]
    }
  ],
  "textures": [
    {
      "sampler": 0,
      "source": 0
    },
    {
      "sampler": 0,
      "source": 1
    },
    {
      "sampler": 0,
      "source": 2
    }
  ]
}
